<svg xmlns="http://www.w3.org/2000/svg" 
    xmlns:xlink="http://www.w3.org/1999/xlink" width="23" height="23" viewBox="0 0 23 23">
    <defs>
        <path id="vv9ra" d="M298.285 4610H287.27a1.27 1.27 0 0 1-1.269-1.27v-20.46c0-.702.568-1.27 1.27-1.27h20.46c.702 0 1.27.568 1.27 1.27v20.46a1.27 1.27 0 0 1-1.27 1.27h-5.86v-8.907h2.99l.447-3.471h-3.437v-2.216c0-1.005.279-1.69 1.72-1.69h1.838v-3.105a24.572 24.572 0 0 0-2.678-.137c-2.65 0-4.465 1.617-4.465 4.588v2.56h-2.997v3.471h2.997V4610z"/>
    </defs>
    <g>
        <g transform="translate(-286 -4587)">
            <use fill="#fff" xlink:href="#vv9ra"/>
        </g>
    </g>
</svg>