<svg xmlns="http://www.w3.org/2000/svg" 
    xmlns:xlink="http://www.w3.org/1999/xlink" width="23" height="23" viewBox="0 0 23 23">
    <defs>
        <path id="m3dla" d="M340.5 4587c3.123 0 3.515.013 4.741.07 1.224.055 2.06.25 2.792.534a5.637 5.637 0 0 1 2.037 1.326c.64.64 1.032 1.28 1.326 2.037.285.732.479 1.568.535 2.792.056 1.226.069 1.618.069 4.741 0 3.123-.013 3.515-.07 4.741-.055 1.224-.25 2.06-.534 2.792a5.638 5.638 0 0 1-1.326 2.037 5.638 5.638 0 0 1-2.037 1.326c-.732.285-1.568.479-2.792.535-1.226.056-1.618.069-4.741.069-3.123 0-3.515-.013-4.741-.07-1.224-.055-2.06-.25-2.792-.534a5.638 5.638 0 0 1-2.037-1.326 5.637 5.637 0 0 1-1.326-2.037c-.285-.732-.479-1.568-.535-2.792-.056-1.226-.069-1.618-.069-4.741 0-3.123.013-3.515.07-4.741.055-1.224.25-2.06.534-2.792a5.637 5.637 0 0 1 1.326-2.037 5.637 5.637 0 0 1 2.037-1.326c.732-.285 1.568-.479 2.792-.535 1.226-.056 1.618-.069 4.741-.069zm0 2.072c-3.07 0-3.434.012-4.647.067-1.121.051-1.73.239-2.135.396-.537.209-.92.458-1.323.86a3.563 3.563 0 0 0-.86 1.323c-.157.405-.345 1.014-.396 2.135-.055 1.213-.067 1.576-.067 4.647 0 3.07.012 3.434.067 4.647.051 1.121.239 1.73.396 2.135.209.537.458.92.86 1.323.403.402.786.651 1.323.86.405.157 1.014.345 2.135.396 1.213.055 1.576.067 4.647.067 3.07 0 3.435-.012 4.647-.067 1.121-.051 1.73-.239 2.135-.396.537-.209.92-.458 1.323-.86.402-.403.651-.786.86-1.323.157-.405.345-1.014.396-2.135.055-1.213.067-1.576.067-4.647 0-3.07-.012-3.434-.067-4.647-.051-1.121-.239-1.73-.396-2.135a3.563 3.563 0 0 0-.86-1.323 3.563 3.563 0 0 0-1.323-.86c-.405-.157-1.014-.345-2.135-.396-1.213-.055-1.576-.067-4.647-.067zm.005 3.523a5.91 5.91 0 1 1 0 11.82 5.91 5.91 0 0 1 0-11.82zm-.01 9.728a3.828 3.828 0 1 0 0-7.656 3.828 3.828 0 0 0 0 7.656zm7.524-9.962a1.38 1.38 0 1 1-2.76 0 1.38 1.38 0 0 1 2.76 0"/>
    </defs>
    <g>
        <g transform="translate(-329 -4587)">
            <use fill="#fff" xlink:href="#m3dla"/>
        </g>
    </g>
</svg>