<svg xmlns="http://www.w3.org/2000/svg" width="24" height="24">
    <g fill="none" fill-rule="evenodd">
        <circle fill="#D93175" cx="12" cy="12" r="12"/>
        <g fill="#FFF">
            <path d="M11.946 6.004c-1.615 0-1.818.007-2.452.036-.633.028-1.065.129-1.443.276a2.914 2.914 0 0 0-1.053.686c-.33.33-.534.662-.686 1.053-.147.378-.247.81-.276 1.443-.03.634-.036.837-.036 2.451 0 1.615.007 1.818.036 2.452.029.633.13 1.065.276 1.443.152.39.355.722.686 1.053.33.33.662.534 1.053.686.378.147.81.247 1.443.276.634.03.837.036 2.452.036 1.614 0 1.817-.007 2.451-.036.633-.029 1.065-.13 1.443-.276a2.915 2.915 0 0 0 1.053-.686c.33-.33.534-.662.686-1.053.147-.378.248-.81.276-1.443.03-.634.036-.837.036-2.452 0-1.614-.007-1.817-.036-2.451-.028-.633-.129-1.065-.276-1.443a2.915 2.915 0 0 0-.686-1.053 2.914 2.914 0 0 0-1.053-.686c-.378-.147-.81-.248-1.443-.276-.634-.03-.837-.036-2.451-.036zm0 1.071c1.587 0 1.775.006 2.402.035.58.026.895.123 1.104.204.278.108.476.237.684.445.208.208.337.406.445.684.081.21.178.524.204 1.104.029.627.035.815.035 2.402 0 1.588-.006 1.776-.035 2.403-.026.58-.123.894-.204 1.104a1.842 1.842 0 0 1-.445.684 1.842 1.842 0 0 1-.684.444c-.21.082-.524.179-1.104.205-.627.029-.815.035-2.402.035-1.588 0-1.776-.006-2.403-.035-.58-.026-.894-.123-1.104-.205a1.842 1.842 0 0 1-.684-.444 1.842 1.842 0 0 1-.444-.684c-.082-.21-.179-.524-.205-1.104-.029-.627-.035-.815-.035-2.403 0-1.587.006-1.775.035-2.402.026-.58.123-.895.205-1.104.108-.278.236-.476.444-.684.208-.208.407-.337.684-.445.21-.081.524-.178 1.104-.204.627-.029.815-.035 2.403-.035z"/>
            <path d="M11.946 13.931a1.982 1.982 0 1 1 0-3.964 1.982 1.982 0 0 1 0 3.964zm0-5.035a3.053 3.053 0 1 0 0 6.106 3.053 3.053 0 0 0 0-6.106zM15.833 8.776a.713.713 0 1 1-1.427 0 .713.713 0 0 1 1.427 0"/>
        </g>
    </g>
</svg>