<svg xmlns="http://www.w3.org/2000/svg" 
    xmlns:xlink="http://www.w3.org/1999/xlink" width="172" height="31" viewBox="0 0 172 31">
    <defs>
        <path id="9447a" d="M244.025 4454.72c0 .84-.677 1.522-1.512 1.522a1.517 1.517 0 0 1-1.513-1.522c0-.84.677-1.52 1.513-1.52.835 0 1.512.68 1.512 1.52m6.26 0c0 .84-.675 1.522-1.508 1.522a1.514 1.514 0 0 1-1.508-1.522c0-.84.675-1.52 1.508-1.52s1.507.68 1.507 1.52m6.007 0c0 .84-.675 1.522-1.508 1.522a1.514 1.514 0 0 1-1.507-1.522c0-.84.674-1.52 1.507-1.52.833 0 1.508.68 1.508 1.52m5.709 0c0 .84-.677 1.522-1.513 1.522a1.517 1.517 0 0 1-1.512-1.522c0-.84.677-1.52 1.512-1.52.836 0 1.513.68 1.513 1.52m-.57-5.468c0 .84-.677 1.522-1.513 1.522a1.517 1.517 0 0 1-1.512-1.522c0-.84.677-1.52 1.512-1.52.836 0 1.513.68 1.513 1.52m-2.465-4.801c0 .843-.675 1.526-1.508 1.526a1.517 1.517 0 0 1-1.507-1.526c0-.843.675-1.526 1.507-1.526.833 0 1.508.683 1.508 1.526m-3.717-3.93c0 .84-.677 1.522-1.512 1.522a1.517 1.517 0 0 1-1.513-1.522c0-.84.677-1.521 1.513-1.521.835 0 1.512.681 1.512 1.521m-.263 8.908c0 .84-.677 1.521-1.512 1.521a1.517 1.517 0 0 1-1.513-1.521c0-.84.677-1.521 1.513-1.521.835 0 1.512.68 1.512 1.52m-3.178-4.188c0 .84-.677 1.521-1.513 1.521a1.517 1.517 0 0 1-1.512-1.521c0-.84.677-1.522 1.512-1.522.836 0 1.513.681 1.513 1.522m-3.693 4.453c0 .84-.675 1.522-1.507 1.522a1.514 1.514 0 0 1-1.508-1.522c0-.84.675-1.52 1.508-1.52.832 0 1.507.68 1.507 1.52m13.316 10.055c0 .84-.677 1.52-1.513 1.52a1.517 1.517 0 0 1-1.512-1.52c0-.84.677-1.522 1.512-1.522.836 0 1.513.681 1.513 1.522m-2.465 4.811c0 .843-.675 1.526-1.508 1.526a1.517 1.517 0 0 1-1.507-1.526c0-.843.675-1.526 1.507-1.526.833 0 1.508.683 1.508 1.526m-3.717 3.92c0 .84-.677 1.521-1.512 1.521a1.517 1.517 0 0 1-1.513-1.521c0-.84.677-1.522 1.513-1.522.835 0 1.512.681 1.512 1.522m-.263-8.908c0 .84-.677 1.521-1.512 1.521a1.517 1.517 0 0 1-1.513-1.52c0-.841.677-1.522 1.513-1.522.835 0 1.512.68 1.512 1.521m-3.178 4.19c0 .84-.677 1.52-1.513 1.52a1.517 1.517 0 0 1-1.512-1.52c0-.841.677-1.522 1.512-1.522.836 0 1.513.681 1.513 1.521m-3.693-4.453c0 .84-.675 1.52-1.507 1.52a1.514 1.514 0 0 1-1.508-1.52c0-.84.675-1.522 1.508-1.522.832 0 1.507.681 1.507 1.522"/>
        <path id="9447b" d="M274.144 4460.674h-.98a.166.166 0 0 1-.164-.168v-14.147c0-.093.073-.168.163-.168h.98c.091 0 .165.075.165.168v14.147a.166.166 0 0 1-.164.168m15.2-14.315c0-.093.074-.168.165-.168h.98c.09 0 .163.075.163.168v14.033a.278.278 0 0 1-.274.282h-.803a.442.442 0 0 1-.364-.193l-8.333-12.054v12.08a.166.166 0 0 1-.163.167h-.981a.166.166 0 0 1-.163-.168v-14.05c0-.146.115-.265.258-.265h.917c.083 0 .16.041.21.11l8.389 12.015v-11.957m68.125 0c0-.093.073-.168.164-.168h.98c.09 0 .164.075.164.168v14.033a.278.278 0 0 1-.275.282h-.803a.442.442 0 0 1-.363-.193l-8.334-12.054v12.08a.166.166 0 0 1-.163.167h-.98a.166.166 0 0 1-.164-.168v-14.05c0-.146.115-.265.258-.265h.917c.083 0 .16.041.21.11l8.389 12.015v-11.957m-41.714 12.991c.123 0 .221.102.221.228v.98a.224.224 0 0 1-.22.227h-7.183a.207.207 0 0 1-.204-.21v-14.156c0-.126.1-.228.221-.228h.866c.122 0 .22.102.22.228v12.931zm-11.758-11.968a.239.239 0 0 1-.235.243h-6.41v4.96h6.065c.13 0 .235.108.235.243v.733a.24.24 0 0 1-.235.242h-6.064v6.649a.22.22 0 0 1-.216.222h-.876a.22.22 0 0 1-.216-.222v-13.973c0-.159.126-.288.28-.288h7.437c.13 0 .235.108.235.242v.95m38.62-.008c0 .138-.109.25-.243.25h-6.401v4.96h6.057c.134 0 .242.112.242.25v.719c0 .138-.108.25-.242.25h-6.058v5.437h6.402c.134 0 .243.111.243.248v.936c0 .138-.109.25-.243.25h-7.414a.3.3 0 0 1-.295-.305v-13.875a.3.3 0 0 1 .295-.304h7.414c.134 0 .243.111.243.25v.934m-18.596 13.345c-2.716-.188-4.766-2.64-4.766-5.445v-8.826c0-.143.112-.258.25-.258h.807c.139 0 .25.115.25.258v8.875c0 1.994 1.388 3.773 3.307 4.028 2.323.307 4.31-1.557 4.31-3.891v-9.012c0-.143.113-.258.25-.258h.808c.138 0 .25.115.25.258v9.012c0 3.026-2.487 5.464-5.466 5.259m46.306.28c-3.953 0-7.17-3.365-7.17-7.5s3.217-7.5 7.17-7.5a6.97 6.97 0 0 1 4.64 1.78c.093.085.1.236.016.33l-.586.657a.214.214 0 0 1-.305.016 5.687 5.687 0 0 0-3.765-1.436c-3.232 0-5.862 2.76-5.862 6.153 0 3.392 2.63 6.153 5.862 6.153 1.56 0 3.013-.627 4.115-1.77a.215.215 0 0 1 .306-.01l.634.605c.092.088.097.24.01.332-1.338 1.395-3.171 2.19-5.065 2.19m17.489-.934v.54h-8.444v-14.202h8.28v.54h-7.756v6.291h7.364v.54h-7.364v6.292zm25.183 0v.54h-8.434v-14.202h8.27v.54h-7.747v6.291h7.356v.54h-7.356v6.292zm-22.18-13.633l.597-.029 4.235 7.087 4.235-7.087.597.03-4.57 7.647v6.245h-.523v-6.244z"/>
    </defs>
    <g>
        <g transform="translate(-241 -4439)">
            <g>
                <use fill="#fff" xlink:href="#9447a"/>
            </g>
            <g>
                <use fill="#fff" xlink:href="#9447b"/>
            </g>
        </g>
    </g>
</svg>