<svg xmlns="http://www.w3.org/2000/svg" 
    xmlns:xlink="http://www.w3.org/1999/xlink" width="197" height="35" viewBox="0 0 197 35">
    <defs>
        <path id="vfgra" d="M65.443 33.624c0 .942-.77 1.705-1.721 1.705-.951 0-1.722-.763-1.722-1.705 0-.942.77-1.706 1.722-1.706.95 0 1.721.764 1.721 1.706m7.136 0c0 .942-.771 1.705-1.722 1.705-.95 0-1.721-.763-1.721-1.705 0-.942.77-1.706 1.721-1.706.95 0 1.722.764 1.722 1.706m6.836 0c0 .942-.771 1.705-1.722 1.705-.95 0-1.721-.763-1.721-1.705 0-.942.77-1.706 1.721-1.706.951 0 1.722.764 1.722 1.706m6.486 0c0 .942-.77 1.705-1.721 1.705-.95 0-1.722-.763-1.722-1.705 0-.942.771-1.706 1.722-1.706.95 0 1.721.764 1.721 1.706m-.648-6.13c0 .942-.77 1.705-1.722 1.705-.95 0-1.721-.763-1.721-1.705 0-.942.77-1.706 1.721-1.706.951 0 1.722.764 1.722 1.706m-2.795-5.389c0 .942-.77 1.706-1.721 1.706-.95 0-1.722-.764-1.722-1.706s.771-1.705 1.722-1.705c.95 0 1.721.763 1.721 1.705m-4.23-4.4c0 .943-.774 1.706-1.727 1.706a1.716 1.716 0 0 1-1.727-1.705c0-.943.773-1.706 1.727-1.706.953 0 1.726.763 1.726 1.706m-.3 9.985c0 .942-.772 1.706-1.726 1.706a1.716 1.716 0 0 1-1.726-1.706c0-.942.773-1.705 1.726-1.705.954 0 1.727.763 1.727 1.705M74.3 22.995c0 .942-.77 1.706-1.721 1.706-.951 0-1.722-.764-1.722-1.706s.77-1.705 1.722-1.705c.95 0 1.721.763 1.721 1.705m-4.191 4.993c0 .942-.771 1.705-1.722 1.705-.95 0-1.721-.763-1.721-1.705 0-.942.77-1.706 1.721-1.706.95 0 1.722.764 1.722 1.706m15.144 11.271c0 .942-.77 1.706-1.722 1.706-.95 0-1.721-.764-1.721-1.706s.77-1.705 1.721-1.705c.951 0 1.722.763 1.722 1.705m-2.795 5.389c0 .942-.77 1.705-1.721 1.705-.95 0-1.722-.763-1.722-1.705 0-.942.771-1.706 1.722-1.706.95 0 1.721.764 1.721 1.706m-4.23 4.4c0 .941-.774 1.705-1.727 1.705a1.716 1.716 0 0 1-1.727-1.706c0-.942.773-1.705 1.727-1.705.953 0 1.726.763 1.726 1.705m-.3-9.986c0 .942-.772 1.706-1.726 1.706a1.716 1.716 0 0 1-1.726-1.706c0-.942.773-1.705 1.726-1.705.954 0 1.727.763 1.727 1.705M74.3 43.758c0 .942-.77 1.705-1.721 1.705-.951 0-1.722-.763-1.722-1.705 0-.942.77-1.706 1.722-1.706.95 0 1.721.764 1.721 1.706m-4.191-4.993c0 .942-.771 1.705-1.722 1.705-.95 0-1.721-.763-1.721-1.705 0-.942.77-1.706 1.721-1.706.95 0 1.722.764 1.722 1.706"/>
        <path id="vfgrb" d="M99.55 40.503h-1.114a.186.186 0 0 1-.186-.186V24.746c0-.103.083-.186.186-.186h1.115c.103 0 .186.083.186.186v15.57a.186.186 0 0 1-.186.187m17.403-15.757c0-.103.084-.186.187-.186h1.122c.103 0 .187.083.187.186V40.19c0 .173-.14.311-.313.311h-.92a.511.511 0 0 1-.415-.212l-9.533-13.268v13.295a.186.186 0 0 1-.188.185h-1.122a.186.186 0 0 1-.186-.185V24.852c0-.161.131-.292.295-.292h1.05c.094 0 .183.046.239.121l9.597 13.226V24.746m77.996 0c0-.103.084-.186.187-.186h1.121c.104 0 .188.083.188.186V40.19c0 .173-.14.311-.314.311h-.919a.511.511 0 0 1-.416-.212l-9.533-13.268v13.295a.186.186 0 0 1-.187.185h-1.122a.186.186 0 0 1-.186-.185V24.852c0-.161.131-.292.295-.292h1.049c.095 0 .184.046.24.121l9.597 13.226V24.746m-47.759 14.29c.14 0 .253.111.253.25v1.077c0 .139-.113.25-.253.25h-8.213a.232.232 0 0 1-.233-.23V24.811c0-.139.113-.25.253-.25h.99c.14 0 .252.111.252.25v14.224zM133.74 25.871a.268.268 0 0 1-.27.267h-7.337v5.46h6.943c.15 0 .27.119.27.266v.807c0 .147-.12.267-.27.267h-6.943v7.319c0 .135-.11.245-.247.245h-1.002a.246.246 0 0 1-.248-.245v-15.38a.32.32 0 0 1 .32-.318h8.515c.148 0 .27.12.27.267v1.045m44.205-.008a.276.276 0 0 1-.277.275h-7.322v5.46h6.927c.154 0 .277.122.277.274v.792a.276.276 0 0 1-.277.274h-6.927v5.985h7.322c.153 0 .277.123.277.274v1.03a.276.276 0 0 1-.277.275h-8.48a.336.336 0 0 1-.337-.335V24.895c0-.185.151-.335.337-.335h8.48c.153 0 .277.123.277.275v1.03m-21.28 14.688c-3.11-.207-5.457-2.906-5.457-5.994v-9.715c0-.157.129-.284.287-.284h.923c.159 0 .287.127.287.284v9.769c0 2.195 1.589 4.154 3.786 4.434 2.66.338 4.935-1.714 4.935-4.283v-9.92c0-.157.128-.284.286-.284h.924c.158 0 .287.127.287.284v9.92c0 3.33-2.848 6.015-6.259 5.789m53.005.308c-4.52 0-8.197-3.703-8.197-8.256 0-4.552 3.677-8.255 8.197-8.255 1.95 0 3.823.694 5.303 1.96a.253.253 0 0 1 .019.363l-.67.723a.25.25 0 0 1-.348.017 6.647 6.647 0 0 0-4.304-1.58c-3.696 0-6.702 3.039-6.702 6.772 0 3.735 3.006 6.773 6.702 6.773a6.6 6.6 0 0 0 4.704-1.948.252.252 0 0 1 .35-.01l.724.665a.254.254 0 0 1 .011.365 8.203 8.203 0 0 1-5.79 2.411m20.003-1.029v.594h-9.636v-15.63h9.45v.593h-8.852v6.924h8.404v.594h-8.404v6.925zm28.844 0v.594h-9.636v-15.63h9.45v.593h-8.853v6.924h8.404v.594h-8.404v6.925zm-25.373-15.005l.683-.032 4.848 7.806 4.85-7.806.682.032-5.252 8.456v6.836h-.579v-6.867z"/>
    </defs>
    <g>
        <g transform="translate(-62 -16)">
            <g>
                <use fill="#2cd0cd" xlink:href="#vfgra"/>
            </g>
            <g>
                <use fill="#2b2b2b" xlink:href="#vfgrb"/>
            </g>
        </g>
    </g>
</svg>