<svg xmlns="http://www.w3.org/2000/svg" 
    xmlns:xlink="http://www.w3.org/1999/xlink" width="23" height="19" viewBox="0 0 23 19">
    <defs>
        <path id="7n8ba" d="M265.752 4592.49c-.004-.003-.008-.008-.013-.01l-.008-.004-6.85-3.37a.716.716 0 0 0-.144-.05.788.788 0 0 0-.853.33l-3.944 6.305 4.95 7.912 6.883-11.005a.081.081 0 0 0-.021-.108"/>
        <path id="7n8bb" d="M251.76 4594.25v7.178l6.484 3.19-6.484-10.368"/>
        <path id="7n8bc" d="M259.22 4605.094l5.338 2.626c.694.342 1.257.102 1.257-.534v-12.636l-6.595 10.544"/>
        <path id="7n8bd" d="M250.639 4592.499l-6.69-3.291a.777.777 0 0 0-.34-.088c-.294 0-.499.223-.499.597v14.212c0 .38.283.83.629 1l5.892 2.9a.97.97 0 0 0 .425.11c.366 0 .623-.28.623-.748v-14.628a.072.072 0 0 0-.04-.064"/>
    </defs>
    <g>
        <g transform="translate(-243 -4589)">
            <g>
                <use fill="#fff" xlink:href="#7n8ba"/>
            </g>
            <g>
                <use fill="#fff" xlink:href="#7n8bb"/>
            </g>
            <g>
                <use fill="#fff" xlink:href="#7n8bc"/>
            </g>
            <g>
                <use fill="#fff" xlink:href="#7n8bd"/>
            </g>
        </g>
    </g>
</svg>