<svg xmlns="http://www.w3.org/2000/svg" xmlns:xlink="http://www.w3.org/1999/xlink" width="264px" height="60px" viewBox="0 0 264 60" version="1.1">
    <!-- Generator: Sketch 53.2 (72643) - https://sketchapp.com -->
    <title>logo</title>
    <desc>Created with Sketch.</desc>
    <g id="landing" stroke="none" stroke-width="1" fill="none" fill-rule="evenodd">
        <g id="landing-copy" transform="translate(-760.000000, -408.000000)" fill="#FFFFFF">
            <g id="testimonial" transform="translate(230.000000, 119.000000)">
                <g id="logo" transform="translate(530.000000, 289.000000)">
                    <path d="M29.3820598,0 C45.6438287,0 58.7641196,13.364624 58.7641196,29.7893722 C58.7641196,46.2141205 45.6438287,59.641196 29.3820598,59.641196 C13.1202909,59.641196 0,46.276572 0,29.7893722 C0,13.3021725 13.1818885,0 29.3820598,0 L29.3820598,0 Z M29.3820598,5.68308779 C42.5639483,5.68308779 53.2203347,16.4871997 53.2203347,29.8518238 C53.2203347,38.7199388 48.4773188,46.526378 41.3935937,50.7106295 C42.8719363,45.4647023 43.4879124,40.0938721 43.241522,33.9111722 C44.7814622,34.3483328 45.6438287,34.5981388 47.183769,35.097751 C45.3974383,30.5387904 43.4879124,26.4169905 40.9624104,22.232739 C38.7448965,26.5418935 35.7266136,30.6012419 32.7083307,33.7862692 L37.6361395,33.4740116 C33.3859044,41.1555478 27.4109363,44.9026387 19.8344303,45.9643144 C18.1096972,37.2835539 19.403247,23.1070602 29.0740718,16.4871997 L30.0596335,21.2335148 C31.9691594,18.1733906 35.665016,14.1140422 38.4369084,11.3037241 C34.0634781,9.55508166 29.0124741,8.99301804 24.0846654,9.92979075 C24.8854343,10.6167574 25.8709961,11.4910786 26.671765,12.1780453 C15.7689881,16.8619088 9.79401993,24.5434451 5.85177292,33.4740116 C5.66698009,32.2874328 5.60538248,31.0384025 5.60538248,29.8518238 C5.60538248,16.4871997 16.2617689,5.68308779 29.3820598,5.68308779 L29.3820598,5.68308779 Z" id="Shape"/>
                    <g id="Group" transform="translate(63.149502, 10.524917)">
                        <path d="M22.316722,33.8565199 C22.316722,34.288206 22.316722,34.719892 22.316722,35.1515781 C21.138895,35.1515781 20.0230589,35.1515781 18.8452319,35.1515781 C18.8452319,35.9532807 18.8452319,36.8166528 18.8452319,37.6183555 L22.6886674,37.6183555 C22.6886674,38.0500415 22.6886674,38.4817276 22.6886674,38.9134136 L17.3574505,38.9134136 L17.3574505,30.3413621 L22.6266765,30.3413621 C22.6266765,30.7730482 22.6266765,31.2047342 22.6266765,31.6364203 C21.3248677,31.6364203 20.0850498,31.6364203 18.783241,31.6364203 L18.783241,33.7948505 C19.961068,33.8565199 21.138895,33.8565199 22.316722,33.8565199 L22.316722,33.8565199 Z M11.3443337,38.8517442 L6.07510767,38.8517442 L6.07510767,30.3413621 C6.57103482,30.3413621 7.06696198,30.3413621 7.56288913,30.3413621 L7.56288913,37.556686 L11.4063246,37.556686 C11.3443337,37.9883721 11.3443337,38.4200581 11.3443337,38.8517442 L11.3443337,38.8517442 Z M39.5501907,30.4030316 L37.5664821,32.6848007 C37.3185185,32.5614618 37.0705549,32.4997924 36.8225914,32.3764535 L37.5664821,30.4030316 C38.186391,30.4030316 38.8682909,30.4030316 39.5501907,30.4030316 L39.5501907,30.4030316 Z M43.0836717,31.9447674 C42.897699,32.0681063 42.7737172,32.3147841 42.7737172,32.7464701 C42.7737172,33.4865033 43.0216808,33.7331811 43.7035807,33.8565199 L45.0673803,33.9798588 C46.43118,34.1031977 47.2370616,34.8432309 47.2370616,36.3232973 L47.2370616,36.8166528 C47.2370616,37.1866694 47.1750708,37.556686 47.051089,37.8650332 C46.9271072,38.1733804 46.7411345,38.4200581 46.4931709,38.6050664 C46.1832164,38.8517442 45.8112711,38.9134136 45.4393257,38.9750831 C45.0673803,39.0367525 44.6334441,39.0367525 44.2614987,39.0367525 L41.4719085,39.0367525 C41.4719085,38.543397 41.4719085,38.0500415 41.4719085,37.556686 L44.5094623,37.556686 C44.6334441,37.556686 44.7574259,37.556686 44.8814077,37.556686 C45.5013166,37.556686 45.873262,37.4333472 45.8112711,36.5083056 C45.8112711,36.0766196 45.6872893,35.8299419 45.5633075,35.706603 C45.3773348,35.5832641 45.1293712,35.5215947 44.8194168,35.4599252 L43.3936262,35.3365864 C42.897699,35.2749169 42.339781,35.1515781 41.9678356,34.7815615 C41.5958902,34.4115449 41.3479267,33.8565199 41.3479267,32.9314784 C41.3479267,32.8081395 41.3479267,32.6848007 41.3479267,32.4997924 C41.4099176,31.5747508 41.719872,31.0197259 42.2777901,30.7113787 C42.8357081,30.4030316 43.5795989,30.3413621 44.3234896,30.3413621 L46.8651163,30.3413621 C46.8651163,30.8347176 46.8651163,31.3280731 46.8651163,31.8214286 L44.1375169,31.8214286 C43.6415898,31.8214286 43.2696444,31.8214286 43.0836717,31.9447674 L43.0836717,31.9447674 Z M60.3791313,38.8517442 L60.3791313,30.3413621 L64.098585,30.3413621 C64.4085394,30.3413621 64.8424757,30.464701 65.2144211,30.7113787 C65.5863664,30.9580565 65.83433,31.3897425 65.83433,32.0681063 L65.83433,33.1164867 C65.83433,33.8565199 65.4623846,34.2265365 65.2144211,34.4732143 C65.4623846,34.6582226 65.83433,35.0899086 65.83433,35.7682724 L65.83433,37.125 C65.83433,38.0500415 65.0284484,38.8517442 64.098585,38.8517442 L60.3791313,38.8517442 L60.3791313,38.8517442 Z M64.2225668,35.2749169 C64.1605759,35.2132475 63.9746032,35.0899086 63.8506214,35.0899086 L61.8049219,35.0899086 L61.8049219,37.4950166 L63.8506214,37.4950166 C63.9746032,37.4950166 64.098585,37.4333472 64.2225668,37.3100083 C64.2845576,37.2483389 64.3465485,37.125 64.3465485,36.9399917 L64.3465485,35.6449336 C64.4085394,35.5832641 64.3465485,35.3982558 64.2225668,35.2749169 L64.2225668,35.2749169 Z M64.2845576,31.8214286 C64.1605759,31.6980897 64.0365941,31.6364203 63.8506214,31.6364203 L61.8049219,31.6364203 L61.8049219,33.7948505 L63.9126123,33.7948505 C64.0365941,33.7948505 64.1605759,33.7331811 64.2845576,33.6098422 C64.4085394,33.4865033 64.4705303,33.301495 64.4705303,33.1781561 L64.4705303,32.1914452 C64.4085394,32.1297757 64.3465485,31.9447674 64.2845576,31.8214286 L64.2845576,31.8214286 Z M117.906681,33.8565199 L121.378172,33.8565199 C121.378172,34.288206 121.378172,34.719892 121.378172,35.1515781 L117.906681,35.1515781 L117.906681,37.6183555 L121.750117,37.6183555 C121.750117,38.0500415 121.750117,38.4817276 121.750117,38.9134136 L116.480891,38.9134136 L116.480891,30.3413621 C118.216636,30.3413621 120.014372,30.3413621 121.750117,30.3413621 C121.750117,30.7730482 121.750117,31.2047342 121.750117,31.6364203 L117.906681,31.6364203 L117.906681,33.8565199 L117.906681,33.8565199 Z M109.785874,38.8517442 L105.012575,38.8517442 L105.012575,30.3413621 C105.508503,30.3413621 106.00443,30.3413621 106.500357,30.3413621 L106.500357,37.556686 L109.785874,37.556686 C109.785874,37.9883721 109.785874,38.4200581 109.785874,38.8517442 L109.785874,38.8517442 Z M99.3094131,31.6980897 L97.1397318,31.6980897 L97.1397318,38.8517442 C96.6438046,38.8517442 96.1478774,38.8517442 95.6519503,38.8517442 L95.6519503,31.6980897 L93.482269,31.6980897 C93.482269,31.2664037 93.482269,30.8347176 93.482269,30.4030316 L99.3094131,30.4030316 C99.3094131,30.8347176 99.3094131,31.2664037 99.3094131,31.6980897 L99.3094131,31.6980897 Z M87.7171158,31.6980897 L85.5474345,31.6980897 L85.5474345,38.8517442 C85.0515073,38.8517442 84.5555802,38.8517442 84.059653,38.8517442 L84.059653,31.6980897 L81.8899717,31.6980897 C81.8899717,31.2664037 81.8899717,30.8347176 81.8899717,30.4030316 L87.7171158,30.4030316 C87.7171158,30.8347176 87.7171158,31.2664037 87.7171158,31.6980897 L87.7171158,31.6980897 Z M72.7773102,37.0633306 L72.3433739,38.9134136 L70.7936016,38.9134136 L73.1492556,30.4030316 C73.7691645,30.4030316 74.3890735,30.4030316 75.0709733,30.4030316 L77.4266273,38.9134136 C76.9307001,38.9134136 76.3727821,38.9134136 75.8768549,38.9134136 L75.3809278,37.0633306 L72.7773102,37.0633306 L72.7773102,37.0633306 Z M73.0872647,35.7682724 L74.9469915,35.7682724 L74.0171281,32.0681063 L73.0872647,35.7682724 L73.0872647,35.7682724 Z M33.7230466,31.6980897 C32.9791559,31.6980897 32.2972561,31.6980897 31.5533653,31.6980897 L31.5533653,38.8517442 C31.0574382,38.8517442 30.561511,38.8517442 30.0655839,38.8517442 L30.0655839,31.6980897 C29.3216931,31.6980897 28.6397933,31.6980897 27.8959025,31.6980897 C27.8959025,31.2664037 27.8959025,30.8347176 27.8959025,30.4030316 L33.7230466,30.4030316 C33.7230466,30.8347176 33.7230466,31.2664037 33.7230466,31.6980897 L33.7230466,31.6980897 Z" id="Shape" fill-rule="nonzero"/>
                        <g>
                            <g fill-rule="nonzero">
                                <polygon id="Path" points="12.2122062 7.15365449 14.3198966 19.1175249 19.0312046 19.1175249 24.2384398 0.308347176 19.6511136 0.308347176 16.7995324 12.5188953 14.8158238 0.308347176 12.7701243 0.308347176 11.6542882 0.308347176 9.60858866 0.308347176 7.62488003 12.5188953 4.77329888 0.308347176 0.185972684 0.308347176 5.39320783 19.1175249 10.1045158 19.1175249"/>
                                <path d="M27.1520118,19.1175249 L28.0198843,15.2323505 L32.7931832,15.2323505 L33.6610557,19.1175249 L37.9384275,19.1175249 L32.7311923,0.308347176 L28.0198843,0.308347176 L22.8746401,19.1175249 L27.1520118,19.1175249 L27.1520118,19.1175249 Z M30.4375292,4.93355482 L32.0492925,12.0255399 L28.825766,12.0255399 L30.4375292,4.93355482 L30.4375292,4.93355482 Z" id="Shape"/>
                                <path d="M44.1995078,12.0872093 L46.8031254,12.0872093 L49.3447521,19.1175249 L54.05606,19.1175249 L50.7085517,11.2855066 C52.1343423,10.7921512 53.0642057,9.55876246 53.0642057,8.07869601 L53.0642057,3.88517442 C53.0642057,2.15843023 51.8863787,0.863372093 50.3366064,0.493355482 C49.3447521,0.246677741 48.3528977,0.308347176 47.2990525,0.308347176 L40.1700997,0.308347176 L40.1700997,19.1175249 L44.1995078,19.1175249 L44.1995078,12.0872093 L44.1995078,12.0872093 Z M44.1995078,3.94684385 L47.609007,3.94684385 C48.3528977,3.94684385 49.0347976,4.31686047 49.0347976,5.18023256 L49.0347976,7.03031561 C49.0347976,7.95535714 48.4148886,8.38704319 47.609007,8.38704319 L44.1995078,8.38704319 L44.1995078,3.94684385 L44.1995078,3.94684385 Z" id="Shape"/>
                                <path d="M65.1524302,19.3025332 C67.1361388,19.3025332 68.3139658,18.7475083 69.3058201,18.0074751 L69.3058201,8.01702658 L62.920758,8.01702658 L62.920758,11.5938538 L65.276412,11.5938538 C65.276412,12.8272425 65.276412,13.8756229 65.276412,15.1706811 C64.9044666,15.2323505 64.4705303,15.2940199 64.0365941,15.2940199 L62.4248308,15.2940199 C60.1311677,15.2940199 59.5732497,13.6906146 59.5732497,11.9638704 L59.5732497,7.27699336 C59.5732497,5.48857973 60.3791313,4.19352159 62.5488126,4.19352159 L68.9958656,4.19352159 L68.9958656,0.185008306 L62.300849,0.185008306 C58.5813953,0.185008306 55.9157869,2.40510797 55.5438415,6.22861296 C55.5438415,6.53696013 55.4818506,6.84530731 55.4818506,7.15365449 L55.4818506,12.5805648 C55.4818506,16.5274086 58.20945,19.3025332 61.9289037,19.3025332 L65.1524302,19.3025332 L65.1524302,19.3025332 Z" id="Path"/>
                                <path d="M74.8850006,19.1175249 L75.7528731,15.2323505 L80.526172,15.2323505 L81.3940445,19.1175249 L85.6714163,19.1175249 L80.4641811,0.308347176 L75.7528731,0.308347176 L70.6076289,19.1175249 L74.8850006,19.1175249 L74.8850006,19.1175249 Z M78.1085271,4.93355482 L79.7202904,12.0255399 L76.4967639,12.0255399 L78.1085271,4.93355482 L78.1085271,4.93355482 Z" id="Shape"/>
                                <polygon id="Path" points="101.355113 7.58534053 101.355113 19.1175249 105.260539 19.1175249 105.260539 0.308347176 100.177286 0.308347176 96.395841 14.307309 92.6763874 0.308347176 87.593134 0.308347176 87.593134 19.1175249 91.4365695 19.1175249 91.4365695 7.58534053 94.3501415 19.1175249 98.4415405 19.1175249"/>
                                <polygon id="Path" points="112.637455 19.1175249 112.637455 0.308347176 108.608047 0.308347176 108.608047 19.1175249"/>
                                <polygon id="Path" points="129.932915 19.1175249 129.932915 0.308347176 126.027489 0.308347176 126.027489 11.5321844 119.952381 0.308347176 115.984964 0.308347176 115.984964 19.1175249 119.828399 19.1175249 119.828399 7.89368771 125.965498 19.1175249"/>
                                <polygon id="Path" points="170.165006 19.1175249 170.165006 0.308347176 166.259579 0.308347176 166.259579 11.5321844 160.184472 0.308347176 156.217054 0.308347176 156.217054 19.1175249 160.06049 19.1175249 160.06049 7.89368771 166.197588 19.1175249"/>
                                <polygon id="Path" points="184.546893 7.58534053 177.293958 7.58534053 177.293958 3.94684385 185.290784 3.94684385 185.290784 0.308347176 173.26455 0.308347176 173.26455 19.1175249 185.290784 19.1175249 185.290784 15.4790282 177.293958 15.4790282 177.293958 11.1621678 184.546893 11.1621678"/>
                                <polygon id="Path" points="200.478553 3.94684385 200.478553 0.308347176 187.336483 0.308347176 187.336483 3.94684385 191.92381 3.94684385 191.92381 19.1175249 195.953218 19.1175249 195.953218 3.94684385"/>
                                <path d="M141.959149,19.3025332 C143.942857,19.3025332 145.120684,18.7475083 146.112538,18.0074751 L146.112538,8.01702658 L139.727476,8.01702658 L139.727476,11.5938538 L142.08313,11.5938538 C142.08313,12.8272425 142.08313,13.8756229 142.08313,15.1706811 C141.711185,15.2323505 141.277249,15.2940199 140.843312,15.2940199 L139.231549,15.2940199 C136.937886,15.2940199 136.379968,13.6906146 136.379968,11.9638704 L136.379968,7.27699336 C136.379968,5.48857973 137.18585,4.19352159 139.355531,4.19352159 L145.802584,4.19352159 L145.802584,0.185008306 L139.107567,0.185008306 C135.388114,0.185008306 132.722505,2.40510797 132.35056,6.22861296 C132.35056,6.53696013 132.288569,6.84530731 132.288569,7.15365449 L132.288569,12.5805648 C132.288569,16.5274086 135.016168,19.3025332 138.735622,19.3025332 L141.959149,19.3025332 L141.959149,19.3025332 Z" id="Path"/>
                            </g>
                            <polygon id="Path" points="149.336065 15.6023671 153.241491 15.6023671 153.241491 19.4258721 149.336065 19.4258721"/>
                        </g>
                    </g>
                </g>
            </g>
        </g>
    </g>
</svg>