<svg xmlns="http://www.w3.org/2000/svg" 
    xmlns:xlink="http://www.w3.org/1999/xlink" width="171px" height="60px" viewBox="0 0 171 60" version="1.1">
    <!-- Generator: Sketch 53.2 (72643) - https://sketchapp.com -->
    <title>Fill 2</title>
    <desc>Created with Sketch.</desc>
    <g id="landing" stroke="none" stroke-width="1" fill="none" fill-rule="evenodd">
        <g id="landing-copy" transform="translate(-775.000000, -1343.000000)" fill="#FFFFFE">
            <path d="M822.600252,1379.94894 L833.359685,1379.94894 L833.359685,1366.04736 L822.600252,1366.04736 L822.600252,1379.94894 Z M837.665235,1362.04173 L818.301366,1362.04173 C818.010331,1362.04173 817.775577,1362.27722 817.775577,1362.56604 L817.775577,1383.4347 C817.775577,1383.72278 818.010331,1383.96049 818.301366,1383.96049 L837.665235,1383.96049 C837.952568,1383.96049 838.191025,1383.72278 838.191025,1383.4347 L838.191025,1362.56604 C838.191025,1362.27722 837.952568,1362.04173 837.665235,1362.04173 L837.665235,1362.04173 Z M875.765727,1379.95264 L884.602696,1379.95264 L884.602696,1366.04736 L875.765727,1366.04736 L875.765727,1379.95264 Z M888.906024,1362.04173 L867.232384,1362.04173 C866.939867,1362.04173 866.705113,1362.27722 866.705113,1362.56604 L866.705113,1365.52157 C866.705113,1365.81112 866.939867,1366.04736 867.232384,1366.04736 L867.26719,1366.04736 L870.93809,1366.04736 L870.93809,1379.95264 L867.26719,1379.95264 L867.232384,1379.95264 C866.939867,1379.95264 866.705113,1380.18666 866.705113,1380.47621 L866.705113,1383.4347 C866.705113,1383.72278 866.939867,1383.96049 867.232384,1383.96049 L888.906024,1383.96049 C889.195579,1383.96049 889.429592,1383.72278 889.429592,1383.4347 L889.429592,1362.56604 C889.429592,1362.27722 889.195579,1362.04173 888.906024,1362.04173 L888.906024,1362.04173 Z M911.575703,1365.52157 L911.575703,1362.56604 C911.575703,1362.27722 911.341689,1362.04173 911.050654,1362.04173 L894.050617,1362.04173 C893.763284,1362.04173 893.526308,1362.27722 893.526308,1362.56604 L893.526308,1383.4347 C893.526308,1383.72278 893.763284,1383.96049 894.050617,1383.96049 L911.050654,1383.96049 C911.341689,1383.96049 911.575703,1383.72278 911.575703,1383.4347 L911.575703,1380.47621 C911.575703,1380.18666 911.341689,1379.95264 911.050654,1379.95264 L898.353205,1379.95264 L898.353205,1375.00504 L911.050654,1375.00504 C911.341689,1375.00504 911.575703,1374.7651 911.575703,1374.47851 L911.575703,1371.52149 C911.575703,1371.23342 911.341689,1370.9957 911.050654,1370.9957 L898.353205,1370.9957 L898.353205,1366.04736 L911.050654,1366.04736 C911.341689,1366.04736 911.575703,1365.81112 911.575703,1365.52157 L911.575703,1365.52157 Z M863.171955,1362.04173 L859.395897,1362.04173 C859.104862,1362.04173 858.870108,1362.27722 858.870108,1362.56604 L858.870108,1380.09927 L857.96886,1380.09927 L851.575703,1362.53345 C851.478691,1362.26389 851.158774,1362.04173 850.8707,1362.04173 L842.775021,1362.04173 C842.486948,1362.04173 842.243307,1362.27722 842.243307,1362.56604 L842.243307,1383.4347 C842.243307,1383.72278 842.486948,1383.96049 842.775021,1383.96049 L846.545155,1383.96049 C846.836191,1383.96049 847.070945,1383.72278 847.070945,1383.4347 L847.070945,1365.90073 L847.972933,1365.90073 L854.368312,1383.46432 C854.465324,1383.73611 854.783019,1383.96049 855.070352,1383.96049 L863.171955,1383.96049 C863.462991,1383.96049 863.697745,1383.72278 863.697745,1383.4347 L863.697745,1362.56604 C863.697745,1362.27722 863.462991,1362.04173 863.171955,1362.04173 L863.171955,1362.04173 Z M920.146814,1379.95264 L920.146814,1362.56604 C920.146814,1362.27722 919.909838,1362.04173 919.622505,1362.04173 L915.845707,1362.04173 C915.557633,1362.04173 915.319177,1362.27722 915.319177,1362.56604 L915.319177,1383.4347 C915.319177,1383.72278 915.557633,1383.96049 915.845707,1383.96049 L933.141223,1383.96049 C933.430037,1383.96049 933.665531,1383.72278 933.665531,1383.4347 L933.665531,1380.47621 C933.665531,1380.18666 933.430037,1379.95264 933.141223,1379.95264 L920.146814,1379.95264 Z M800.857741,1379.95264 L797.660051,1362.55715 C797.609694,1362.27426 797.33421,1362.04173 797.043174,1362.04173 L793.13752,1362.04173 C792.846484,1362.04173 792.653201,1362.27278 792.702818,1362.55715 L796.593661,1383.44285 C796.644018,1383.725 796.922465,1383.96049 797.210538,1383.96049 L810.592994,1383.96049 C810.886252,1383.96049 811.165439,1383.725 811.215055,1383.44285 L815.238457,1362.55715 C815.288073,1362.27426 815.091087,1362.04173 814.800792,1362.04173 L810.895138,1362.04173 C810.607065,1362.04173 810.328619,1362.27426 810.278261,1362.55715 L806.951716,1379.95264 L800.857741,1379.95264 Z M779.827637,1398.17162 L940.52005,1398.17162 L940.52005,1347.82838 L779.827637,1347.82838 L779.827637,1398.17162 Z M775,1403 L945.346947,1403 L945.346947,1343 L775,1343 L775,1403 Z" id="Fill-2"/>
        </g>
    </g>
</svg>