<svg xmlns="http://www.w3.org/2000/svg" 
    xmlns:xlink="http://www.w3.org/1999/xlink" width="380px" height="59px" viewBox="0 0 380 59" version="1.1">
    <!-- Generator: Sketch 53.2 (72643) - https://sketchapp.com -->
    <title>Group 2</title>
    <desc>Created with Sketch.</desc>
    <g id="landing" stroke="none" stroke-width="1" fill="none" fill-rule="evenodd">
        <g id="landing-copy" transform="translate(-760.000000, -871.000000)" fill-rule="nonzero">
            <g id="testimonial" transform="translate(230.000000, 581.000000)">
                <g id="Group-2" transform="translate(530.000000, 289.000000)">
                    <path d="M68.6051752,18.3367609 L75.7825337,36.9845758 L82.9428032,18.3367609 L88.5308895,18.3367609 L88.5308895,42.6658098 L84.2244744,42.6658098 L84.2244744,34.6452442 L84.6516981,23.9177378 L77.3034501,42.6658098 L74.2103504,42.6658098 L66.8791914,23.9344473 L67.3064151,34.6452442 L67.3064151,42.6658098 L63,42.6658098 L63,18.3367609 L68.6051752,18.3367609 Z M101.381779,43 C98.7500677,43 96.6168186,42.1895968 94.9819677,40.5687661 C93.3471167,38.9479353 92.5297035,36.789645 92.5297035,34.0938303 L92.5297035,33.592545 C92.5297035,31.7879087 92.8857197,30.175457 93.5977628,28.7551414 C94.3098059,27.3348258 95.3094994,26.2292242 96.5968733,25.4383033 C97.8842472,24.6473825 99.3197046,24.251928 100.903288,24.251928 C103.421073,24.251928 105.366345,25.0372672 106.739164,26.6079692 C108.111984,28.1786711 108.798383,30.4010139 108.798383,33.2750643 L108.798383,34.9125964 L96.716496,34.9125964 C96.8418155,36.4053202 97.3516307,37.5861139 98.2459569,38.4550129 C99.140283,39.3239118 100.265294,39.7583548 101.621024,39.7583548 C103.523603,39.7583548 105.072986,39.0064343 106.269218,37.5025707 L108.507871,39.5912596 C107.767346,40.6718135 106.779045,41.5100656 105.542938,42.1060411 C104.306831,42.7020167 102.919792,43 101.381779,43 Z M100.886199,27.5102828 C99.7469305,27.5102828 98.8269846,27.9001675 98.1263342,28.6799486 C97.4256838,29.4597297 96.9785275,30.5458371 96.7848518,31.9383033 L104.697035,31.9383033 L104.697035,31.6375321 C104.605894,30.2784851 104.235637,29.2508604 103.586253,28.5546272 C102.93687,27.8583941 102.036861,27.5102828 100.886199,27.5102828 Z M111.242102,33.4922879 C111.242102,30.7073554 111.902869,28.4710881 113.22442,26.783419 C114.545972,25.0957499 116.317509,24.251928 118.539084,24.251928 C120.498626,24.251928 122.082186,24.9203018 123.289811,26.2570694 L123.289811,17 L127.442426,17 L127.442426,42.6658098 L123.682857,42.6658098 L123.47779,40.7943445 C122.235987,42.2647888 120.578375,43 118.504906,43 C116.340295,43 114.588695,42.1478234 113.250054,40.4434447 C111.911413,38.739066 111.242102,36.4220369 111.242102,33.4922879 Z M115.394717,33.8431877 C115.394717,35.6812431 115.756429,37.1154619 116.479865,38.1458869 C117.203301,39.1763119 118.231476,39.6915167 119.56442,39.6915167 C121.261931,39.6915167 122.503716,38.9507358 123.289811,37.4691517 L123.289811,29.7493573 C122.526501,28.3011924 121.296109,27.5771208 119.598598,27.5771208 C118.254261,27.5771208 117.217542,28.0978954 116.48841,29.1394602 C115.759278,30.1810249 115.394717,31.7489184 115.394717,33.8431877 Z M136.191968,42.6658098 L132.039353,42.6658098 L132.039353,24.5861183 L136.191968,24.5861183 L136.191968,42.6658098 Z M131.783019,19.8907455 C131.783019,19.2669206 131.985236,18.7489309 132.389677,18.3367609 C132.794117,17.9245909 133.372287,17.718509 134.124205,17.718509 C134.876122,17.718509 135.457141,17.9245909 135.867278,18.3367609 C136.277414,18.7489309 136.48248,19.2669206 136.48248,19.8907455 C136.48248,20.5034307 136.277414,21.0130657 135.867278,21.4196658 C135.457141,21.826266 134.876122,22.029563 134.124205,22.029563 C133.372287,22.029563 132.794117,21.826266 132.389677,21.4196658 C131.985236,21.0130657 131.783019,20.5034307 131.783019,19.8907455 Z M151.76,42.6658098 C151.577717,42.3204781 151.418222,41.7579302 151.281509,40.9781491 C149.959957,42.3260564 148.34222,43 146.428248,43 C144.57124,43 143.056035,42.4820103 141.882588,41.4460154 C140.709141,40.4100205 140.122426,39.1289708 140.122426,37.6028278 C140.122426,35.6756545 140.854395,34.1968775 142.318356,33.1664524 C143.782316,32.1360274 145.875692,31.6208226 148.598544,31.6208226 L151.144798,31.6208226 L151.144798,30.4344473 C151.144798,29.49871 150.877074,28.7495744 150.341617,28.187018 C149.806161,27.6244616 148.991596,27.3431877 147.897898,27.3431877 C146.952304,27.3431877 146.177613,27.5743336 145.573801,28.0366324 C144.969988,28.4989312 144.668086,29.0865431 144.668086,29.7994859 L140.515472,29.7994859 C140.515472,28.8080499 140.851551,27.8806813 141.52372,27.0173522 C142.195888,26.1540231 143.110138,25.4772947 144.266496,24.9871465 C145.422854,24.4969984 146.713057,24.251928 148.137143,24.251928 C150.301754,24.251928 152.02772,24.7838422 153.315094,25.8476864 C154.602468,26.9115306 155.263234,28.4070169 155.297412,30.3341902 L155.297412,38.4884319 C155.297412,40.1148325 155.530959,41.4125916 155.998059,42.3817481 L155.998059,42.6658098 L151.76,42.6658098 Z M147.197251,39.7416452 C148.017524,39.7416452 148.789367,39.5467029 149.512803,39.1568123 C150.236239,38.7669218 150.780232,38.2433623 151.144798,37.5861183 L151.144798,34.1773779 L148.906146,34.1773779 C147.368132,34.1773779 146.211792,34.4391576 145.437089,34.9627249 C144.662386,35.4862922 144.27504,36.2270732 144.27504,37.18509 C144.27504,37.9648711 144.539916,38.5859017 145.069677,39.0482005 C145.599437,39.5104993 146.308621,39.7416452 147.197251,39.7416452 Z M179.033962,34.7455013 C178.783323,37.3410584 177.803566,39.365674 176.094663,40.8194087 C174.38576,42.2731435 172.112952,43 169.276173,43 C167.293845,43 165.547941,42.540493 164.03841,41.6214653 C162.528878,40.7024376 161.363993,39.3963238 160.54372,37.7030848 C159.723446,36.0098459 159.296227,34.043713 159.262049,31.8046272 L159.262049,29.5321337 C159.262049,27.2373493 159.677875,25.2155186 160.509542,23.466581 C161.341208,21.7176434 162.534574,20.3697562 164.089677,19.4228792 C165.644779,18.4760021 167.441948,18.0025707 169.48124,18.0025707 C172.226878,18.0025707 174.437027,18.7322121 176.111752,20.1915167 C177.786477,21.6508213 178.760538,23.7116405 179.033962,26.374036 L174.727547,26.374036 C174.522479,24.6250984 174.001271,23.3635429 173.163908,22.5893316 C172.326546,21.8151204 171.099002,21.4280206 169.48124,21.4280206 C167.601446,21.4280206 166.157444,22.0991792 165.149191,23.4415167 C164.140938,24.7838542 163.625427,26.7527719 163.602642,29.348329 L163.602642,31.503856 C163.602642,34.1328323 164.083975,36.1379537 165.046658,37.5192802 C166.00934,38.9006067 167.419164,39.5912596 169.276173,39.5912596 C170.973683,39.5912596 172.249645,39.2180843 173.104097,38.4717224 C173.958549,37.7253604 174.499693,36.4832992 174.727547,34.7455013 L179.033962,34.7455013 Z M193.69628,40.8946015 C192.477263,42.2982075 190.7456,43 188.50124,43 C186.496127,43 184.978073,42.4263125 183.947035,41.2789203 C182.915997,40.1315281 182.400485,38.4717332 182.400485,36.2994859 L182.400485,24.5861183 L186.5531,24.5861183 L186.5531,36.2493573 C186.5531,38.5441417 187.52716,39.6915167 189.47531,39.6915167 C191.491816,39.6915167 192.853222,38.9841545 193.559569,37.5694087 L193.559569,24.5861183 L197.712183,24.5861183 L197.712183,42.6658098 L193.798814,42.6658098 L193.69628,40.8946015 Z M218.167655,33.8097686 C218.167655,36.6169806 217.526826,38.850463 216.245148,40.5102828 C214.963471,42.1701026 213.200478,43 210.956119,43 C208.791508,43 207.105415,42.2369399 205.89779,40.7107969 L205.692722,42.6658098 L201.933154,42.6658098 L201.933154,17 L206.085768,17 L206.085768,26.3239075 C207.282001,24.9425809 208.894042,24.251928 210.921941,24.251928 C213.177693,24.251928 214.94923,25.0706859 216.236604,26.7082262 C217.523978,28.3457665 218.167655,30.6349467 218.167655,33.5758355 L218.167655,33.8097686 Z M214.01504,33.4588689 C214.01504,31.4982764 213.661872,30.0278541 212.955526,29.0475578 C212.249179,28.0672616 211.223852,27.5771208 209.879515,27.5771208 C208.07947,27.5771208 206.8149,28.3457507 206.085768,29.8830334 L206.085768,37.3354756 C206.826293,38.9061775 208.102255,39.6915167 209.913693,39.6915167 C211.212459,39.6915167 212.215001,39.2180853 212.921348,38.2712082 C213.627694,37.3243312 213.992255,35.8928973 214.01504,33.9768638 L214.01504,33.4588689 Z M229.78814,43 C227.156429,43 225.02318,42.1895968 223.388329,40.5687661 C221.753478,38.9479353 220.936065,36.789645 220.936065,34.0938303 L220.936065,33.592545 C220.936065,31.7879087 221.292081,30.175457 222.004124,28.7551414 C222.716167,27.3348258 223.715861,26.2292242 225.003235,25.4383033 C226.290608,24.6473825 227.726066,24.251928 229.30965,24.251928 C231.827434,24.251928 233.772707,25.0372672 235.145526,26.6079692 C236.518345,28.1786711 237.204744,30.4010139 237.204744,33.2750643 L237.204744,34.9125964 L225.122857,34.9125964 C225.248177,36.4053202 225.757992,37.5861139 226.652318,38.4550129 C227.546644,39.3239118 228.671655,39.7583548 230.027385,39.7583548 C231.929965,39.7583548 233.479347,39.0064343 234.67558,37.5025707 L236.914232,39.5912596 C236.173707,40.6718135 235.185406,41.5100656 233.949299,42.1060411 C232.713192,42.7020167 231.326153,43 229.78814,43 Z M229.292561,27.5102828 C228.153292,27.5102828 227.233346,27.9001675 226.532695,28.6799486 C225.832045,29.4597297 225.384889,30.5458371 225.191213,31.9383033 L233.103396,31.9383033 L233.103396,31.6375321 C233.012255,30.2784851 232.641998,29.2508604 231.992615,28.5546272 C231.343231,27.8583941 230.443222,27.5102828 229.292561,27.5102828 Z M243.014987,38.3881748 C243.789689,38.3881748 244.387797,38.6026114 244.809326,39.031491 C245.230856,39.4603706 245.441617,39.9978545 245.441617,40.6439589 C245.441617,41.2789235 245.230856,41.8052678 244.809326,42.2230077 C244.387797,42.6407476 243.789689,42.8496144 243.014987,42.8496144 C242.274462,42.8496144 241.687747,42.6435325 241.254825,42.2313625 C240.821903,41.8191925 240.605445,41.2900632 240.605445,40.6439589 C240.605445,39.9978545 240.816206,39.4603706 241.237736,39.031491 C241.659265,38.6026114 242.251676,38.3881748 243.014987,38.3881748 Z M270.340216,42.6658098 L266.016712,42.6658098 L254.925984,25.4048843 L254.925984,42.6658098 L250.60248,42.6658098 L250.60248,18.3367609 L254.925984,18.3367609 L266.050889,35.6645244 L266.050889,18.3367609 L270.340216,18.3367609 L270.340216,42.6658098 Z M283.191105,43 C280.559394,43 278.426145,42.1895968 276.791294,40.5687661 C275.156443,38.9479353 274.33903,36.789645 274.33903,34.0938303 L274.33903,33.592545 C274.33903,31.7879087 274.695046,30.175457 275.407089,28.7551414 C276.119132,27.3348258 277.118826,26.2292242 278.406199,25.4383033 C279.693573,24.6473825 281.129031,24.251928 282.712615,24.251928 C285.230399,24.251928 287.175671,25.0372672 288.548491,26.6079692 C289.92131,28.1786711 290.607709,30.4010139 290.607709,33.2750643 L290.607709,34.9125964 L278.525822,34.9125964 C278.651142,36.4053202 279.160957,37.5861139 280.055283,38.4550129 C280.949609,39.3239118 282.07462,39.7583548 283.43035,39.7583548 C285.33293,39.7583548 286.882312,39.0064343 288.078544,37.5025707 L290.317197,39.5912596 C289.576672,40.6718135 288.588371,41.5100656 287.352264,42.1060411 C286.116157,42.7020167 284.729118,43 283.191105,43 Z M282.695526,27.5102828 C281.556257,27.5102828 280.636311,27.9001675 279.93566,28.6799486 C279.23501,29.4597297 278.787854,30.5458371 278.594178,31.9383033 L286.506361,31.9383033 L286.506361,31.6375321 C286.41522,30.2784851 286.044963,29.2508604 285.39558,28.5546272 C284.746196,27.8583941 283.846187,27.5102828 282.695526,27.5102828 Z M299.032561,20.1915167 L299.032561,24.5861183 L302.29655,24.5861183 L302.29655,27.5938303 L299.032561,27.5938303 L299.032561,37.6863753 C299.032561,38.3770386 299.172119,38.875534 299.45124,39.1818766 C299.730361,39.4882192 300.228783,39.6413882 300.946523,39.6413882 C301.425016,39.6413882 301.909198,39.5856904 302.399084,39.4742931 L302.399084,42.6156812 C301.45349,42.871895 300.542089,43 299.664852,43 C296.474899,43 294.879946,41.2789375 294.879946,37.8367609 L294.879946,27.5938303 L291.838113,27.5938303 L291.838113,24.5861183 L294.879946,24.5861183 L294.879946,20.1915167 L299.032561,20.1915167 Z M321.709596,37.0681234 L324.648895,24.5861183 L328.698976,24.5861183 L323.657736,42.6658098 L320.239946,42.6658098 L316.27531,30.2506427 L312.37903,42.6658098 L308.96124,42.6658098 L303.902911,24.5861183 L307.952992,24.5861183 L310.943558,36.9344473 L314.737305,24.5861183 L317.864582,24.5861183 L321.709596,37.0681234 Z M330.698383,33.4588689 C330.698383,31.6876518 331.057247,30.0919094 331.774987,28.6715938 C332.492726,27.2512782 333.500964,26.1596011 334.79973,25.3965296 C336.098497,24.6334581 337.590917,24.251928 339.277035,24.251928 C341.772034,24.251928 343.797054,25.0372672 345.352156,26.6079692 C346.907258,28.1786711 347.747457,30.2617694 347.872776,32.8573265 L347.889865,33.8097686 C347.889865,35.5921254 347.539545,37.185083 346.838895,38.5886889 C346.138244,39.9922949 345.135703,41.0784023 343.83124,41.8470437 C342.526777,42.6156851 341.020116,43 339.311213,43 C336.702287,43 334.614608,42.1506083 333.048113,40.4517995 C331.481618,38.7529906 330.698383,36.4888745 330.698383,33.659383 L330.698383,33.4588689 Z M334.850997,33.8097686 C334.850997,35.6701036 335.244039,37.1266014 336.030135,38.1793059 C336.81623,39.2320104 337.909912,39.7583548 339.311213,39.7583548 C340.712514,39.7583548 341.803347,39.2236557 342.583747,38.1542416 C343.364146,37.0848276 343.75434,35.519719 343.75434,33.4588689 C343.75434,31.6319532 343.352753,30.18381 342.549569,29.1143959 C341.746384,28.0449818 340.65555,27.5102828 339.277035,27.5102828 C337.921305,27.5102828 336.844712,28.0366271 336.047224,29.0893316 C335.249735,30.1420361 334.850997,31.7154994 334.850997,33.8097686 Z M361.082534,28.2956298 C360.535685,28.206512 359.971755,28.1619537 359.390728,28.1619537 C357.488149,28.1619537 356.20649,28.8748858 355.545714,30.3007712 L355.545714,42.6658098 L351.3931,42.6658098 L351.3931,24.5861183 L355.357736,24.5861183 L355.46027,26.6079692 C356.462826,25.0372672 357.852713,24.251928 359.629973,24.251928 C360.222393,24.251928 360.712271,24.329905 361.099623,24.4858612 L361.082534,28.2956298 Z M369.712453,34.9125964 L367.866846,36.7673522 L367.866846,42.6658098 L363.714232,42.6658098 L363.714232,17 L367.866846,17 L367.866846,31.8046272 L369.165606,30.2172237 L374.275202,24.5861183 L379.265175,24.5861183 L372.395418,32.122108 L380,42.6658098 L375.198005,42.6658098 L369.712453,34.9125964 Z" id="MediaCube.Network" fill="#FFFFFF"/>
                    <g id="Network.ai">
                        <g id="g10" transform="translate(25.000000, 30.208332) scale(-1, 1) rotate(-180.000000) translate(-25.000000, -30.208332) translate(0.000000, 0.708332)">
                            <g id="g12">
                                <polygon id="path16" fill="#FFFFFF" points="25.0614935 58.3333319 0.220678069 43.7768906 0.220678069 25.580741 25.0614935 40.1374157"/>
                                <polygon id="path18" fill="#FFFFFF" points="25.0614935 58.3333319 9.50925255 49.2199154 34.3792519 34.6803325 49.9018952 43.7768906"/>
                                <polygon id="path20" fill="#FFFFFF" points="9.50925255 9.2201081 25.0614935 0.106640914 49.9016653 14.6630746 49.9016653 32.8585242"/>
                                <polygon id="path22" fill="#E2E9EF" points="0.221132092 14.663308 25.0617234 0.106640914 25.0617234 18.3027829 0.221132092 32.8592242"/>
                                <polyline id="path24" fill="#E2E9EF" points="20.5740224 37.5078657 9.50902266 49.2194488 25.0612637 40.137649"/>
                            </g>
                        </g>
                    </g>
                </g>
            </g>
        </g>
    </g>
</svg>