<svg width="64" height="64" viewBox="0 0 64 64" 
    xmlns="http://www.w3.org/2000/svg">
    <g fill="#2ccdcb">
        <g id="tube">
            <path d="M2.8,26.1 C1.0,23.4 0,20.2 0,16.8 C0,7.5 7.5,0 16.8,0 C20.2,0 23.4,1.0 26.1,2.8 C25.0,2.6 23.9,2.5 22.7,2.5 C11.5,2.5 2.5,11.5 2.5,22.7 C2.5,23.9 2.6,25.0 2.8,26.1 Z"></path>
            <path d="M9.4,40.3 C6.1,36.4 4.2,31.5 4.2,26.1 C4.2,14.0 14.0,4.2 26.1,4.2 C30.9,4.2 35.5,5.8 39.1,8.5 C37.0,7.9 34.7,7.5 32.4,7.5 C18.9,7.5 8,18.5 8,32 C8,34.9 8.5,37.7 9.4,40.3 Z"></path>
        </g>
        <g id="frame" transform="translate(10, 10)">
            <path d="M27.0,54 C12.1,54 0.1,41.9 0.1,27.0 C0.1,12.1 12.1,0.1 27.0,0.1 C41.9,0.1 54,12.1 54,27.0 C54,41.9 41.9,54 27.0,54 Z M27.0,45.5 C37.2,45.5 45.5,37.2 45.5,27.0 C45.5,16.8 37.2,8.5 27.0,8.5 C16.8,8.5 8.5,16.8 8.5,27.0 C8.5,37.2 16.8,45.5 27.0,45.5 Z M40.9,11.0 C42.1,11.0 43.0,10.1 43.0,8.9 C43.0,7.7 42.1,6.8 40.9,6.8 C39.7,6.8 38.8,7.7 38.8,8.9 C38.8,10.1 39.7,11.0 40.9,11.0 Z"></path>
        </g>
        <g id="spinner" transform="translate(22, 25)">
            <path d="M4.8,12.9 C4.8,12.9 4.8,12.9 4.8,12.9 C2.2,12.2 0.3,9.8 0.3,7.0 C0.3,3.6 3.0,0.9 6.4,0.9 C7.9,0.9 9.4,1.5 10.4,2.4 C11.6,3.6 13.2,4.4 14.9,4.4 C16.7,4.4 18.3,3.6 19.4,2.4 C20.5,1.5 21.9,0.9 23.5,0.9 C26.9,0.9 29.6,3.6 29.6,7.0 C29.6,9.8 27.7,12.2 25.1,12.9 C25.1,12.9 25.1,12.9 25.1,12.9 C22.6,13.7 20.7,16.0 20.7,18.8 C20.7,19.4 20.8,20.0 20.9,20.5 C21.0,20.9 21.1,21.4 21.1,21.8 C21.1,25.2 18.3,28 14.9,28 C11.6,28 8.8,25.2 8.8,21.8 C8.8,21.4 8.9,20.9 9.0,20.5 C9.1,20.0 9.2,19.4 9.2,18.8 C9.2,16.0 7.3,13.7 4.8,12.9 Z M6.4,11.0 C8.6,11.0 10.4,9.2 10.4,7.0 C10.4,4.8 8.6,3.0 6.4,3.0 C4.2,3.0 2.4,4.8 2.4,7.0 C2.4,9.2 4.2,11.0 6.4,11.0 Z M23.5,11.0 C25.7,11.0 27.5,9.2 27.5,7.0 C27.5,4.8 25.7,3.0 23.5,3.0 C21.3,3.0 19.5,4.8 19.5,7.0 C19.5,9.2 21.3,11.0 23.5,11.0 Z M15,25.8 C17.2,25.8 19,24.0 19,21.8 C19,19.6 17.2,17.8 15,17.8 C12.7,17.8 11,19.6 11,21.8 C11,24.0 12.7,25.8 15,25.8 Z"></path>
            <ellipse cx="6.4" cy="7.0" rx="3" ry="3"></ellipse>
            <ellipse cx="23.5" cy="7.0" rx="3" ry="3"></ellipse>
            <circle cx="15" cy="21.8" r="3"></circle>
        </g>
    </g>
</svg>