<svg xmlns="http://www.w3.org/2000/svg" 
    xmlns:xlink="http://www.w3.org/1999/xlink" width="23" height="19" viewBox="0 0 23 19">
    <defs>
        <path id="ds6qa" d="M395 4591.25a9.279 9.279 0 0 1-2.71.754 4.792 4.792 0 0 0 2.076-2.653 9.342 9.342 0 0 1-2.999 1.163 4.672 4.672 0 0 0-3.444-1.514c-2.604 0-4.717 2.148-4.717 4.796 0 .376.04.741.122 1.093-3.922-.2-7.398-2.108-9.727-5.013a4.85 4.85 0 0 0-.638 2.413c0 1.664.833 3.132 2.099 3.993a4.663 4.663 0 0 1-2.139-.599v.06c0 2.324 1.627 4.263 3.787 4.702a4.536 4.536 0 0 1-1.243.17c-.304 0-.6-.03-.888-.086.6 1.905 2.342 3.292 4.407 3.33a9.368 9.368 0 0 1-5.86 2.054c-.38 0-.757-.022-1.126-.066a13.22 13.22 0 0 0 7.233 2.153c8.68 0 13.426-7.308 13.426-13.647 0-.208-.004-.417-.012-.621a9.635 9.635 0 0 0 2.353-2.483"/>
    </defs>
    <g>
        <g transform="translate(-372 -4589)">
            <use fill="#fff" xlink:href="#ds6qa"/>
        </g>
    </g>
</svg>