<svg xmlns="http://www.w3.org/2000/svg" width="24" height="24">
    <g fill="none" fill-rule="evenodd">
        <circle fill="#D9252A" cx="12" cy="12" r="12"/>
        <path d="M10.76 13.316V9.92L14 11.624l-3.24 1.692zm7.117-3.983s-.118-.832-.477-1.2c-.457-.48-.968-.483-1.202-.51C14.519 7.5 12 7.5 12 7.5h-.005s-2.519 0-4.197.122c-.235.028-.746.03-1.203.512-.36.367-.476 1.199-.476 1.199S6 10.311 6 11.288v.917c0 .978.12 1.955.12 1.955s.117.833.476 1.2c.457.48 1.057.466 1.323.516.96.093 4.08.121 4.08.121s2.52-.003 4.199-.126c.234-.028.745-.03 1.202-.512.36-.366.477-1.199.477-1.199s.12-.977.12-1.955v-.917c0-.977-.12-1.955-.12-1.955z" fill="#FFF"/>
    </g>
</svg>